<svg width="68" height="29" viewBox="0 0 68 29" fill="none" xmlns="http://www.w3.org/2000/svg">
<g clip-path="url(#clip0_1_601)">
<path d="M12.3786 2.26543L1.07574 2.72565L2.13421 28.7575L13.4371 28.2973L12.3786 2.26543Z" fill="#F29F33"/>
<path d="M25.7942 4.22925H14.482V27.5244H25.7942V4.22925Z" fill="#4A90E2"/>
<path d="M7.68314 11.5384C9.03414 11.5384 10.1293 10.4425 10.1293 9.09053C10.1293 7.7386 9.03414 6.64264 7.68314 6.64264C6.33214 6.64264 5.23694 7.7386 5.23694 9.09053C5.23694 10.4425 6.33214 11.5384 7.68314 11.5384Z" fill="#FBFCF8"/>
<path d="M8.80859 10.8144H6.54614V20.9277H8.80859V10.8144Z" fill="#FBFCF8"/>
<path d="M6.56501 11.5257L0.000732422 15.3182L1.1779 17.3586L7.74217 13.566L6.56501 11.5257Z" fill="#FBFCF8"/>
<path d="M6.56109 13.1665L13.1254 16.959L14.4805 14.6102L7.91626 10.8177L6.56109 13.1665Z" fill="#FBFCF8"/>
<path d="M19.8199 10.4399L13.6215 14.8057L14.9898 16.751L21.1882 12.3853L19.8199 10.4399Z" fill="#FBFCF8"/>
<path d="M18.6655 12.685L24.8638 17.0508L26.2321 15.1054L20.0338 10.7397L18.6655 12.685Z" fill="#FBFCF8"/>
<path d="M6.24885 20.0498L13.5193 24.2503L14.4208 22.6877L7.15039 18.4872L6.24885 20.0498Z" fill="#FBFCF8"/>
<path d="M8.06468 18.7717L0.11792 23.363L1.06539 25.0052L9.01215 20.4139L8.06468 18.7717Z" fill="#FBFCF8"/>
<path d="M19.1562 12.2739C20.6594 12.2739 21.878 10.9361 21.878 9.28589C21.878 7.63564 20.6594 6.29785 19.1562 6.29785C17.6529 6.29785 16.4343 7.63564 16.4343 9.28589C16.4343 10.9361 17.6529 12.2739 19.1562 12.2739Z" fill="#FBFCF8"/>
<path d="M17.4105 14.5265V17.7214L14.482 20.468V24.1226L25.7828 23.8468V19.8589L20.1324 13.1359L17.4105 14.5265Z" fill="#FBFCF8"/>
<path d="M38.4617 0H26.8623V25.6626H38.4617V0Z" fill="#528D4E"/>
<path d="M32.8572 11.5959C34.8678 11.5959 36.4978 9.96483 36.4978 7.9528C36.4978 5.94077 34.8678 4.30969 32.8572 4.30969C30.8466 4.30969 29.2166 5.94077 29.2166 7.9528C29.2166 9.96483 30.8466 11.5959 32.8572 11.5959Z" fill="white"/>
<path d="M34.867 8.64233H30.9393V19.7211H34.867V8.64233Z" fill="white"/>
<path d="M31.1588 10.4906L26.2245 16.05L27.6242 17.294L32.5585 11.7345L31.1588 10.4906Z" fill="white"/>
<path d="M32.9139 11.7533L38.9901 16.0331L40.0676 14.5012L33.9913 10.2215L32.9139 11.7533Z" fill="white"/>
<path d="M33.0065 19.3339L38.8079 23.9799L39.9775 22.5173L34.1761 17.8713L33.0065 19.3339Z" fill="white"/>
<path d="M31.4164 17.919L25.5356 22.4641L26.6799 23.9466L32.5606 19.4016L31.4164 17.919Z" fill="white"/>
<path d="M53.6034 3.27282L40.8628 2.8432L39.9991 28.4913L52.7397 28.9209L53.6034 3.27282Z" fill="#C2410C"/>
<path d="M46.4089 10.734C47.9438 10.734 49.1881 9.4888 49.1881 7.9528C49.1881 6.4168 47.9438 5.17163 46.4089 5.17163C44.874 5.17163 43.6296 6.4168 43.6296 7.9528C43.6296 9.4888 44.874 10.734 46.4089 10.734Z" fill="white"/>
<path d="M48.6944 10.7339H44.2843V19.043H48.6944V10.7339Z" fill="white"/>
<path d="M53.4903 17.1874L55.1693 14.8003L47.5528 9.4357L45.8738 11.8228L53.4903 17.1874Z" fill="white"/>
<path d="M39.4551 14.5146L40.8099 16.2701L48.1813 10.573L46.8265 8.81755L39.4551 14.5146Z" fill="white"/>
<path d="M53.0236 24.3326L54.8248 22.0804L46.0913 15.0863L44.2901 17.3385L53.0236 24.3326Z" fill="white"/>
<path d="M67.1729 0H54.5744V26.2717H67.1729V0Z" fill="#3A1671"/>
<path d="M39.8418 22.0792L41.5878 23.8264L48.5554 16.854L46.8094 15.1068L39.8418 22.0792Z" fill="white"/>
<path d="M60.3741 10.1593C62.0169 10.1593 63.3486 8.82668 63.3486 7.18278C63.3486 5.53888 62.0169 4.20624 60.3741 4.20624C58.7313 4.20624 57.3996 5.53888 57.3996 7.18278C57.3996 8.82668 58.7313 10.1593 60.3741 10.1593Z" fill="white"/>
<path d="M59.5357 14.1702C58.8237 14.6069 57.9049 15.2735 57.0206 16.2733C55.7573 17.6984 55.1372 19.1579 54.8271 20.0773V23.9273H67.483C68.0802 22.0655 67.839 20.8933 67.483 20.1463C66.5642 18.227 64.4166 18.1466 63.3601 16.0205C62.8318 14.9517 62.8203 13.8714 62.9007 13.1129L67.104 15.4804V12.8026L61.7637 10.1249L59.0534 9.81458L54.2758 13.8599V16.8594L59.5472 14.1357L59.5357 14.1702Z" fill="white"/>
</g>
<defs>
<clipPath id="clip0_1_601">
<rect width="67.839" height="28.915" fill="white"/>
</clipPath>
</defs>
</svg>
