<svg width="317" height="59" viewBox="0 0 317 59" fill="none" xmlns="http://www.w3.org/2000/svg">
<path d="M175.649 3.03516C175.649 3.81445 175.8 4.55273 176.101 5.25C176.408 5.94727 176.876 6.56934 177.505 7.11621C178.134 7.65625 178.924 8.07324 179.874 8.36719L178.5 10.4385C177.529 10.1104 176.695 9.64551 175.998 9.04395C175.301 8.43555 174.747 7.71436 174.337 6.88037C173.92 7.84424 173.342 8.67822 172.604 9.38232C171.866 10.0796 170.974 10.6094 169.928 10.9717L168.513 8.87988C169.524 8.54492 170.362 8.06641 171.025 7.44434C171.688 6.81543 172.177 6.10449 172.491 5.31152C172.806 4.51855 172.963 3.68457 172.963 2.80957V1.12793H175.649V3.03516ZM183.606 4.4502H186.129V6.64453H183.606V11.1562H180.961V0.123047H183.606V4.4502ZM177.475 11.5869C178.773 11.5869 179.898 11.7305 180.848 12.0176C181.805 12.2979 182.54 12.7114 183.053 13.2583C183.572 13.7983 183.832 14.4443 183.832 15.1963C183.832 15.9346 183.576 16.5737 183.063 17.1138C182.55 17.6538 181.815 18.0674 180.858 18.3545C179.901 18.6416 178.773 18.7852 177.475 18.7852C176.176 18.7852 175.048 18.6416 174.091 18.3545C173.134 18.0674 172.396 17.6538 171.876 17.1138C171.356 16.5737 171.097 15.9346 171.097 15.1963C171.097 14.4443 171.356 13.7983 171.876 13.2583C172.396 12.7114 173.134 12.2979 174.091 12.0176C175.048 11.7305 176.176 11.5869 177.475 11.5869ZM177.475 13.6377C174.986 13.6377 173.742 14.1572 173.742 15.1963C173.742 15.7021 174.057 16.085 174.686 16.3447C175.321 16.5977 176.251 16.7275 177.475 16.7344C178.705 16.7275 179.635 16.5977 180.264 16.3447C180.899 16.085 181.214 15.7021 181.207 15.1963C181.214 14.1572 179.97 13.6377 177.475 13.6377Z" fill="#1E1E1E"/>
<path d="M156.659 4.75781C156.652 6.43945 156.916 7.9707 157.449 9.35156C157.982 10.7256 158.847 11.7988 160.043 12.5713L158.587 14.6426C157.117 13.7402 156.051 12.2432 155.388 10.1514C155.046 11.2656 154.581 12.2397 153.993 13.0737C153.412 13.9009 152.715 14.5605 151.901 15.0527L150.302 13.0635C151.601 12.2773 152.554 11.1528 153.163 9.68994C153.778 8.22705 154.089 6.63086 154.096 4.90137V1.72266H156.659V4.75781ZM166.831 18.7646H164.309V0.123047H166.831V18.7646ZM162.955 17.9443H160.474V8.55176H158.074V6.39844H160.474V0.410156H162.955V17.9443Z" fill="#1E1E1E"/>
<path d="M147.677 7.28027H134.613V0.779297H137.259V5.16797H147.677V7.28027ZM149.563 11.3408H132.521V9.22852H149.563V11.3408ZM147.779 18.375H134.449V12.8174H137.115V16.2627H147.779V18.375Z" fill="#1E1E1E"/>
<path d="M129.117 7.40332H131.845V9.61816H129.117V18.7852H126.472V0.123047H129.117V7.40332ZM125.241 5.00391H114.27V2.87109H118.453V0.430664H121.119V2.87109H125.241V5.00391ZM119.786 6.07031C120.688 6.07031 121.502 6.2583 122.227 6.63428C122.958 7.01025 123.529 7.53662 123.939 8.21338C124.356 8.8833 124.564 9.64551 124.564 10.5C124.564 11.3545 124.356 12.1201 123.939 12.7969C123.529 13.4736 122.961 14.0034 122.237 14.3862C121.512 14.7622 120.695 14.9502 119.786 14.9502C118.884 14.9502 118.07 14.7622 117.346 14.3862C116.628 14.0034 116.061 13.4736 115.644 12.7969C115.233 12.1201 115.028 11.3545 115.028 10.5C115.028 9.64551 115.233 8.8833 115.644 8.21338C116.061 7.53662 116.628 7.01025 117.346 6.63428C118.07 6.2583 118.884 6.07031 119.786 6.07031ZM119.786 8.22363C119.355 8.22363 118.969 8.31592 118.627 8.50049C118.292 8.67822 118.033 8.94141 117.848 9.29004C117.664 9.63184 117.571 10.0352 117.571 10.5C117.571 10.9717 117.664 11.3818 117.848 11.7305C118.033 12.0723 118.292 12.3354 118.627 12.52C118.969 12.7046 119.355 12.7969 119.786 12.7969C120.224 12.7969 120.61 12.7046 120.945 12.52C121.28 12.3354 121.543 12.0723 121.734 11.7305C121.926 11.3818 122.021 10.9717 122.021 10.5C122.021 10.0352 121.926 9.63184 121.734 9.29004C121.543 8.94141 121.28 8.67822 120.945 8.50049C120.61 8.31592 120.224 8.22363 119.786 8.22363Z" fill="#1E1E1E"/>
<path d="M100.796 2.23535C100.789 3.97852 100.71 5.55762 100.56 6.97266C100.41 8.38086 100.129 9.74805 99.7192 11.0742C99.3091 12.3936 98.7314 13.6445 97.9863 14.8271L95.9355 13.7402C96.5576 12.79 97.0498 11.8296 97.4121 10.8589C97.7812 9.88818 98.0479 8.88672 98.2119 7.85449C98.3828 6.81543 98.4888 5.65332 98.5298 4.36816H96.5508V2.23535H100.796ZM104.979 2.23535C104.979 3.21289 104.969 4.09131 104.949 4.87061C104.928 5.64307 104.884 6.3916 104.815 7.11621H106.374V0.512695H108.855V17.9443H106.374V9.24902H104.539C104.34 10.459 104.046 11.604 103.657 12.6841C103.274 13.7573 102.771 14.7793 102.149 15.75L100.14 14.6221C100.803 13.6035 101.319 12.5542 101.688 11.4741C102.064 10.394 102.327 9.29004 102.478 8.16211C102.628 7.03418 102.717 5.76953 102.744 4.36816H101.35V2.23535H104.979ZM112.547 18.7852H110.024V0.123047H112.547V18.7852Z" fill="#1E1E1E"/>
<path d="M92.8594 4.7373H95.3818V6.89062H92.8594V11.3613H90.2139V0.123047H92.8594V4.7373ZM92.8594 18.5801H80.6572V12.1816H92.8594V18.5801ZM83.2617 16.4883H90.2754V14.2734H83.2617V16.4883ZM89.1475 3.89648H78.0732V1.80469H82.2773V0H84.9434V1.80469H89.1475V3.89648ZM83.6104 4.4707C84.5127 4.4707 85.3125 4.61084 86.0098 4.89111C86.7139 5.17139 87.2607 5.56445 87.6504 6.07031C88.0469 6.57617 88.2451 7.15723 88.2451 7.81348C88.2451 8.47656 88.0469 9.06104 87.6504 9.56689C87.2607 10.0728 86.7139 10.4658 86.0098 10.7461C85.3057 11.0195 84.5059 11.1562 83.6104 11.1562C82.708 11.1562 81.9048 11.0195 81.2007 10.7461C80.5034 10.4727 79.9565 10.083 79.5601 9.57715C79.1704 9.06445 78.9756 8.47656 78.9756 7.81348C78.9756 7.15723 79.1704 6.57617 79.5601 6.07031C79.9565 5.56445 80.5034 5.17139 81.2007 4.89111C81.9048 4.61084 82.708 4.4707 83.6104 4.4707ZM83.6104 6.41895C82.9746 6.41895 82.4653 6.54199 82.0825 6.78809C81.7065 7.02734 81.5186 7.36914 81.5186 7.81348C81.5186 8.26465 81.7065 8.61328 82.0825 8.85938C82.4653 9.10547 82.9746 9.22852 83.6104 9.22852C84.2393 9.22852 84.7417 9.10547 85.1177 8.85938C85.5005 8.61328 85.6953 8.26465 85.7021 7.81348C85.6953 7.36914 85.5039 7.02734 85.1279 6.78809C84.752 6.54199 84.2461 6.41895 83.6104 6.41895Z" fill="#1E1E1E"/>
<path d="M70.4648 13.5557H67.7988V0.143555H70.4648V13.5557ZM70.957 18.457H57.9551V12.2021H60.6006V16.3242H70.957V18.457ZM60.2314 1.3125C61.1816 1.3125 62.0464 1.51758 62.8257 1.92773C63.605 2.33105 64.2168 2.89502 64.6611 3.61963C65.1123 4.3374 65.3379 5.14746 65.3379 6.0498C65.3379 6.94531 65.1123 7.75195 64.6611 8.46973C64.21 9.1875 63.5947 9.75488 62.8154 10.1719C62.043 10.582 61.1816 10.7871 60.2314 10.7871C59.2744 10.7871 58.4028 10.582 57.6167 10.1719C56.8374 9.75488 56.2222 9.1875 55.771 8.46973C55.3267 7.75195 55.1045 6.94531 55.1045 6.0498C55.1045 5.14746 55.3267 4.3374 55.771 3.61963C56.2222 2.89502 56.8374 2.33105 57.6167 1.92773C58.4028 1.51758 59.2744 1.3125 60.2314 1.3125ZM60.2314 3.60938C59.7529 3.60254 59.3188 3.69824 58.9292 3.89648C58.5464 4.08789 58.2456 4.36816 58.0269 4.7373C57.8149 5.10645 57.709 5.54395 57.709 6.0498C57.709 6.54199 57.8149 6.96924 58.0269 7.33154C58.2456 7.69385 58.5464 7.97412 58.9292 8.17236C59.3188 8.36377 59.7529 8.46289 60.2314 8.46973C60.71 8.46289 61.1372 8.36377 61.5132 8.17236C61.896 7.97412 62.1934 7.69385 62.4053 7.33154C62.624 6.96924 62.7334 6.54199 62.7334 6.0498C62.7334 5.54395 62.624 5.10645 62.4053 4.7373C62.1934 4.36816 61.896 4.08789 61.5132 3.89648C61.1372 3.69824 60.71 3.60254 60.2314 3.60938Z" fill="#1E1E1E"/>
<path d="M40.1133 3.44531H43.7637V1.06641H46.3682V4.36816H49.752V0.123047H52.4385V10.3359H49.752V6.52148H46.3682V9.78223H37.4678V1.06641H40.1133V3.44531ZM43.7637 7.66992V5.45508H40.1133V7.66992H43.7637ZM42.5742 12.8174H49.793V11.1152H52.418V18.5391H39.9492V11.1152H42.5742V12.8174ZM49.793 16.4473V14.8682H42.5742V16.4473H49.793Z" fill="#1E1E1E"/>
<path d="M33.3252 5.22949H35.8477V7.38281H33.3252V13.5967H30.6797V0.123047H33.3252V5.22949ZM27.665 3.71191H21.8818V8.4082C23.6387 8.39453 25.0435 8.3501 26.0962 8.2749C27.1489 8.19971 28.1777 8.05957 29.1826 7.85449L29.4492 9.94629C28.335 10.1924 27.166 10.3564 25.9424 10.4385C24.7188 10.5205 23.0029 10.5615 20.7949 10.5615H19.2363V1.59961H27.665V3.71191ZM34.0225 18.457H21.2256V12.1816H23.8711V16.3242H34.0225V18.457Z" fill="#1E1E1E"/>
<path d="M7.28027 4.28613C7.28711 5.43457 7.44775 6.54541 7.76221 7.61865C8.0835 8.68506 8.56885 9.64551 9.21826 10.5C9.87451 11.3545 10.6846 12.0176 11.6484 12.4893L10.0488 14.6016C9.0918 14.1162 8.27148 13.4395 7.58789 12.5713C6.91113 11.7031 6.37109 10.6846 5.96777 9.51562C5.55078 10.7598 4.97314 11.8501 4.23486 12.7866C3.50342 13.7163 2.625 14.4307 1.59961 14.9297L0 12.7969C1.01172 12.3252 1.86621 11.6484 2.56348 10.7666C3.26074 9.87793 3.78027 8.87305 4.12207 7.75195C4.46387 6.63086 4.63477 5.47559 4.63477 4.28613V1.55859H7.28027V4.28613ZM15.1143 7.30078H17.8623V9.51562H15.1143V18.7852H12.4688V0.123047H15.1143V7.30078Z" fill="#1E1E1E"/>
<path d="M308.402 31.6602H302.32C302.543 33.3359 303.258 34.8535 304.465 36.2129C305.684 37.5605 307.441 38.5508 309.738 39.1836L307.207 43.1562C305.461 42.6758 303.961 41.9434 302.707 40.959C301.465 39.9629 300.463 38.7793 299.701 37.4082C298.939 38.9082 297.908 40.2031 296.607 41.293C295.307 42.3711 293.73 43.1797 291.879 43.7188L289.348 39.7109C291.715 39.043 293.52 37.9883 294.762 36.5469C296.004 35.0938 296.73 33.4648 296.941 31.6602H290.719V27.6523H308.402V31.6602ZM316.488 43.5078H311.32V26.0352H316.488V43.5078ZM299.719 47.4805H311.355V44.8438H316.488V57.957H294.656V44.8438H299.719V47.4805ZM311.355 53.8438V51.4531H299.719V53.8438H311.355Z" fill="#531DA6"/>
<path d="M259.992 28.0742C261.68 28.0742 263.209 28.4199 264.58 29.1113C265.963 29.8027 267.047 30.7637 267.832 31.9941C268.629 33.2246 269.027 34.6016 269.027 36.125C269.027 37.6602 268.629 39.043 267.832 40.2734C267.047 41.5039 265.969 42.4707 264.598 43.1738C263.227 43.8652 261.691 44.2109 259.992 44.2109C258.305 44.2109 256.77 43.8652 255.387 43.1738C254.016 42.4707 252.932 41.5039 252.135 40.2734C251.35 39.043 250.957 37.6602 250.957 36.125C250.957 34.6016 251.35 33.2305 252.135 32.0117C252.932 30.7812 254.016 29.8203 255.387 29.1289C256.77 28.4258 258.305 28.0742 259.992 28.0742ZM260.027 32.5039C259.254 32.5039 258.557 32.6445 257.936 32.9258C257.326 33.1953 256.846 33.6055 256.494 34.1562C256.143 34.6953 255.973 35.3516 255.984 36.125C255.984 36.8867 256.154 37.5488 256.494 38.1113C256.846 38.6621 257.32 39.084 257.918 39.377C258.516 39.6699 259.195 39.8164 259.957 39.8164C260.719 39.8164 261.404 39.6758 262.014 39.3945C262.623 39.1016 263.104 38.6797 263.455 38.1289C263.807 37.5664 263.988 36.8984 264 36.125C264 35.3633 263.824 34.7129 263.473 34.1738C263.133 33.623 262.664 33.207 262.066 32.9258C261.469 32.6445 260.789 32.5039 260.027 32.5039ZM276.867 58.3438H271.77V25.9648H276.867V58.3438ZM249.691 47.832C253.676 47.8203 257.314 47.75 260.607 47.6211C263.912 47.4922 267.059 47.2109 270.047 46.7773L270.434 50.4688C267.48 51.0547 264.404 51.4473 261.205 51.6465C258.018 51.8457 254.695 51.9453 251.238 51.9453H250.289L249.691 47.832Z" fill="#531DA6"/>
<path d="M230.672 34.3672C230.672 36.0547 230.947 37.7422 231.498 39.4297C232.049 41.1172 232.904 42.6641 234.064 44.0703C235.236 45.4766 236.695 46.5781 238.441 47.375L235.629 51.418C233.906 50.6445 232.418 49.543 231.164 48.1133C229.922 46.6719 228.932 44.9961 228.193 43.0859C227.467 45.1953 226.465 47.0469 225.188 48.6406C223.922 50.2227 222.387 51.4297 220.582 52.2617L217.699 48.1836C219.469 47.3633 220.939 46.2148 222.111 44.7383C223.283 43.25 224.145 41.6094 224.695 39.8164C225.258 38.0117 225.539 36.1953 225.539 34.3672V33.2422H218.965V29.0234H236.93V33.2422H230.672V34.3672ZM244.066 38.0938H248.602V42.3125H244.066V58.2734H238.934V26.0352H244.066V38.0938Z" fill="#531DA6"/>
<path d="M216.82 44.9844H187.395V40.9414H199.523V38.5859H190.875V27.3711H213.34V31.3789H196.008V34.5781H213.48V38.5859H204.691V40.9414H216.82V44.9844ZM201.984 46.3555C204.328 46.3555 206.344 46.5957 208.031 47.0762C209.73 47.5449 211.031 48.2305 211.934 49.1328C212.848 50.0234 213.305 51.1016 213.305 52.3672C213.305 53.6211 212.848 54.6934 211.934 55.584C211.031 56.4746 209.73 57.1543 208.031 57.623C206.344 58.1035 204.328 58.3438 201.984 58.3438C199.629 58.3438 197.596 58.1035 195.885 57.623C194.186 57.1543 192.885 56.4746 191.982 55.584C191.08 54.6934 190.629 53.6211 190.629 52.3672C190.629 51.1016 191.08 50.0234 191.982 49.1328C192.885 48.2305 194.186 47.5449 195.885 47.0762C197.596 46.5957 199.629 46.3555 201.984 46.3555ZM201.809 50.2578C199.77 50.2578 198.264 50.4336 197.291 50.7852C196.318 51.125 195.832 51.6641 195.832 52.4023C195.832 53.1289 196.342 53.6504 197.361 53.9668C198.381 54.2832 199.98 54.4414 202.16 54.4414C204.188 54.4414 205.682 54.2773 206.643 53.9492C207.615 53.6094 208.102 53.082 208.102 52.3672C208.102 51.6172 207.592 51.0781 206.572 50.75C205.564 50.4219 203.977 50.2578 201.809 50.2578Z" fill="#531DA6"/>
<path d="M182.648 43.6836H173.508V50.6797H185.707V54.8281H156.246V50.6797H168.41V43.6836H159.445V28.3555H164.613V39.6406H182.648V43.6836Z" fill="#531DA6"/>
<path d="M152.273 49.0977H147.105V26.0352H152.273V49.0977ZM153.047 57.7461H130.371V46.7773H135.504V53.6328H153.047V57.7461ZM134.484 28.0039C136.137 28.0039 137.643 28.3613 139.002 29.0762C140.373 29.7793 141.451 30.7637 142.236 32.0293C143.021 33.2832 143.414 34.6953 143.414 36.2656C143.414 37.8242 143.021 39.2363 142.236 40.502C141.451 41.7559 140.373 42.7402 139.002 43.4551C137.643 44.1699 136.137 44.5273 134.484 44.5273C132.82 44.5273 131.303 44.1699 129.932 43.4551C128.561 42.7402 127.477 41.7559 126.68 40.502C125.883 39.2363 125.484 37.8242 125.484 36.2656C125.484 34.6953 125.883 33.2832 126.68 32.0293C127.477 30.7637 128.555 29.7793 129.914 29.0762C131.285 28.3613 132.809 28.0039 134.484 28.0039ZM134.484 32.4336C133.734 32.4336 133.061 32.5859 132.463 32.8906C131.865 33.1836 131.396 33.6172 131.057 34.1914C130.717 34.7656 130.547 35.457 130.547 36.2656C130.547 37.0508 130.717 37.7305 131.057 38.3047C131.396 38.8672 131.859 39.2949 132.445 39.5879C133.031 39.8809 133.699 40.0273 134.449 40.0273C135.199 40.0273 135.873 39.8867 136.471 39.6055C137.068 39.3125 137.537 38.8848 137.877 38.3223C138.217 37.748 138.387 37.0625 138.387 36.2656C138.387 35.457 138.217 34.7656 137.877 34.1914C137.537 33.6172 137.068 33.1836 136.471 32.8906C135.885 32.5859 135.223 32.4336 134.484 32.4336Z" fill="#531DA6"/>
<path d="M120.105 29.9727C120.105 31.6016 120.07 33.0371 120 34.2793C119.941 35.5215 119.777 36.8633 119.508 38.3047H123.48V42.418H111.281V46.5312H120.141V58.2734H114.973V50.5742H96.9727V46.5312H106.148V42.418H94.0195V38.3047H114.375C114.621 37.0625 114.791 35.8965 114.885 34.8066C114.979 33.7051 115.031 32.5625 115.043 31.3789H97.6055V27.3359H120.105V29.9727Z" fill="#531DA6"/>
<path d="M73.3125 27.8281C75 27.8281 76.5293 28.1738 77.9004 28.8652C79.2832 29.5566 80.3672 30.5176 81.1523 31.748C81.9492 32.9668 82.3477 34.3438 82.3477 35.8789C82.3477 37.1328 82.0723 38.293 81.5215 39.3594C80.9824 40.4141 80.2207 41.3105 79.2363 42.0488C78.2637 42.7871 77.1445 43.3086 75.8789 43.6133V47.5859C78.7266 47.4102 81.2227 47.1641 83.3672 46.8477L83.7539 50.5391C80.6602 51.1484 77.4727 51.5469 74.1914 51.7344C70.9219 51.9219 67.3945 52.0156 63.6094 52.0156L63.0117 47.9023C65.8945 47.9023 68.4609 47.8672 70.7109 47.7969V43.6133C69.457 43.2969 68.3438 42.7695 67.3711 42.0312C66.3984 41.293 65.6367 40.3965 65.0859 39.3418C64.5469 38.2871 64.2773 37.1328 64.2773 35.8789C64.2773 34.3438 64.6699 32.9668 65.4551 31.748C66.252 30.5176 67.3359 29.5566 68.707 28.8652C70.0898 28.1738 71.625 27.8281 73.3125 27.8281ZM73.3125 32.1875C72.5508 32.1875 71.8652 32.334 71.2559 32.627C70.6465 32.9082 70.166 33.3242 69.8145 33.875C69.4746 34.4258 69.3047 35.0938 69.3047 35.8789C69.3047 36.6523 69.4746 37.3145 69.8145 37.8652C70.166 38.416 70.6465 38.832 71.2559 39.1133C71.8652 39.3945 72.5508 39.5352 73.3125 39.5352C74.0742 39.5352 74.7539 39.3945 75.3516 39.1133C75.9609 38.832 76.4414 38.416 76.793 37.8652C77.1445 37.3145 77.3203 36.6523 77.3203 35.8789C77.3203 35.0938 77.1445 34.4258 76.793 33.875C76.4414 33.3242 75.9609 32.9082 75.3516 32.627C74.7539 32.334 74.0742 32.1875 73.3125 32.1875ZM90.1875 58.3438H85.0898V25.9648H90.1875V58.3438Z" fill="#531DA6"/>
<path d="M44.0977 31.3438C44.0977 33.5117 44.6777 35.4629 45.8379 37.1973C47.0098 38.9199 48.8555 40.1797 51.375 40.9766L48.7383 44.9844C47.0508 44.4336 45.6035 43.6426 44.3965 42.6113C43.2012 41.5684 42.2461 40.3262 41.5312 38.8848C40.7812 40.4551 39.7734 41.8086 38.5078 42.9453C37.2422 44.082 35.707 44.9492 33.9023 45.5469L31.1602 41.5391C32.9648 40.9883 34.4414 40.1855 35.5898 39.1309C36.7383 38.0645 37.5703 36.8633 38.0859 35.5273C38.6133 34.1914 38.8828 32.7852 38.8945 31.3086V27.9688H44.0977V31.3438ZM57.457 35.2109H61.6758V39.3945H57.457V49.5195H52.3242V26H57.457V35.2109ZM58.5469 57.7461H36.293V47.2695H41.4609V53.6328H58.5469V57.7461Z" fill="#531DA6"/>
<path d="M30.3867 33.875H26.3438V36.7578H30.3867V40.9414H26.3438V44.7383H21.2109V26.0352H26.3438V29.6914H30.3867V33.875ZM9.71484 27.6875C11.3789 27.6875 12.8906 28.0332 14.25 28.7246C15.6094 29.4043 16.6816 30.3477 17.4668 31.5547C18.252 32.75 18.6445 34.0977 18.6445 35.5977C18.6445 37.0859 18.252 38.4336 17.4668 39.6406C16.6934 40.8477 15.6211 41.7969 14.25 42.4883C12.8906 43.168 11.3789 43.5078 9.71484 43.5078C8.03906 43.5078 6.52148 43.168 5.16211 42.4883C3.80273 41.7969 2.73047 40.8477 1.94531 39.6406C1.17188 38.4336 0.785156 37.0859 0.785156 35.5977C0.785156 34.0977 1.17188 32.75 1.94531 31.5547C2.73047 30.3477 3.80273 29.4043 5.16211 28.7246C6.52148 28.0332 8.03906 27.6875 9.71484 27.6875ZM9.71484 32.0117C8.96484 32.0117 8.29102 32.1523 7.69336 32.4336C7.0957 32.7148 6.62695 33.125 6.28711 33.6641C5.94727 34.2031 5.77734 34.8477 5.77734 35.5977C5.77734 36.7344 6.14062 37.6133 6.86719 38.2344C7.60547 38.8555 8.55469 39.1719 9.71484 39.1836C10.8633 39.1719 11.8008 38.8555 12.5273 38.2344C13.2656 37.6016 13.6289 36.7227 13.6172 35.5977C13.6172 34.8477 13.4473 34.2031 13.1074 33.6641C12.7793 33.125 12.3164 32.7148 11.7188 32.4336C11.1328 32.1523 10.4648 32.0117 9.71484 32.0117ZM15.6562 45.3359C17.9062 45.3359 19.8633 45.5938 21.5273 46.1094C23.2031 46.625 24.4922 47.3691 25.3945 48.3418C26.3086 49.3145 26.7656 50.4688 26.7656 51.8047C26.7656 53.1523 26.3086 54.3125 25.3945 55.2852C24.4922 56.2578 23.2031 57.002 21.5273 57.5176C19.8633 58.0449 17.9062 58.3086 15.6562 58.3086C13.4062 58.3086 11.4434 58.0449 9.76758 57.5176C8.10352 57.002 6.81445 56.2578 5.90039 55.2852C4.99805 54.3125 4.54688 53.1523 4.54688 51.8047C4.54688 50.4688 4.99805 49.3145 5.90039 48.3418C6.81445 47.3691 8.10938 46.625 9.78516 46.1094C11.4609 45.5938 13.418 45.3359 15.6562 45.3359ZM15.6562 49.3438C13.6523 49.3555 12.1523 49.5605 11.1562 49.959C10.1602 50.3457 9.66797 50.9609 9.67969 51.8047C9.66797 52.6484 10.1602 53.2754 11.1562 53.6855C12.1523 54.084 13.6523 54.2891 15.6562 54.3008C17.6719 54.2891 19.1777 54.084 20.1738 53.6855C21.1699 53.2871 21.668 52.6602 21.668 51.8047C21.668 50.9609 21.1699 50.3457 20.1738 49.959C19.1895 49.5605 17.6836 49.3555 15.6562 49.3438Z" fill="#531DA6"/>
</svg>
