<?xml version="1.0" encoding="UTF-8"?>
<svg id="_레이어_1" xmlns="http://www.w3.org/2000/svg" version="1.1" viewBox="0 0 317 72">
  <!-- Generator: Adobe Illustrator 30.2.1, SVG Export Plug-In . SVG Version: 2.1.1 Build 1)  -->
  <g>
    <path d="M299.15,5.17c0,1.33.26,2.59.77,3.77.52,1.19,1.32,2.25,2.39,3.18,1.07.92,2.41,1.63,4.04,2.13l-2.34,3.53c-1.66-.56-3.08-1.35-4.26-2.37-1.19-1.03-2.13-2.27-2.83-3.68-.71,1.65-1.7,3.07-2.95,4.26-1.26,1.19-2.78,2.09-4.56,2.71l-2.41-3.57c1.72-.57,3.15-1.39,4.28-2.44,1.12-1.07,1.96-2.28,2.49-3.63.53-1.35.81-2.77.81-4.26V1.92h4.58v3.25h0ZM312.71,7.57h4.29v3.74h-4.29v7.69h-4.51V.21h4.51v7.37h0ZM302.26,19.74c2.21,0,4.13.25,5.74.74,1.63.48,2.88,1.19,3.75,2.12.88.92,1.33,2.02,1.33,3.3s-.44,2.34-1.31,3.26-2.13,1.63-3.75,2.12-3.55.74-5.76.74-4.13-.25-5.76-.74-2.88-1.2-3.77-2.12-1.33-2-1.33-3.26.44-2.38,1.33-3.3c.89-.93,2.15-1.64,3.77-2.12,1.63-.49,3.55-.74,5.76-.74h0ZM302.26,23.22c-4.24,0-6.36.89-6.36,2.66,0,.86.53,1.51,1.6,1.95,1.08.43,2.67.65,4.75.66,2.1-.01,3.68-.24,4.75-.66,1.08-.44,1.61-1.09,1.6-1.95.01-1.77-2.11-2.66-6.36-2.66Z"/>
    <path d="M266.81,8.11c-.01,2.86.44,5.47,1.35,7.82.91,2.34,2.38,4.17,4.42,5.48l-2.48,3.53c-2.5-1.53-4.32-4.09-5.45-7.65-.58,1.9-1.37,3.56-2.37,4.98-.99,1.41-2.18,2.53-3.57,3.37l-2.72-3.38c2.21-1.34,3.83-3.25,4.88-5.74,1.04-2.49,1.57-5.21,1.58-8.16V2.93h4.36v5.17ZM284.14,31.96h-4.29V.21h4.29v31.75ZM277.53,30.56h-4.22v-16h-4.09v-3.67h4.09V.7h4.22v29.86h0Z"/>
    <path d="M251.52,12.4h-22.25V1.33h4.51v7.47h17.74v3.6ZM254.73,19.32h-29.03v-3.6h29.03v3.6ZM251.69,31.3h-22.7v-9.47h4.54v5.87h18.16v3.6Z"/>
    <path d="M219.91,12.61h4.65v3.77h-4.65v15.61h-4.51V.21h4.51v12.4ZM213.3,8.52h-18.68v-3.63h7.12V.74h4.54v4.16h7.02v3.63ZM204.01,10.33c1.53,0,2.92.32,4.16.96,1.25.64,2.22,1.53,2.91,2.69.71,1.14,1.06,2.44,1.06,3.89s-.36,2.76-1.06,3.91c-.7,1.16-1.67,2.05-2.9,2.71-1.24.64-2.63.96-4.17.96s-2.92-.32-4.16-.96c-1.23-.65-2.19-1.55-2.9-2.71-.7-1.16-1.05-2.45-1.05-3.91s.35-2.75,1.05-3.89c.71-1.16,1.68-2.04,2.9-2.69,1.24-.64,2.62-.96,4.16-.96h0ZM204.01,14c-.74,0-1.39.15-1.97.47-.57.31-1.01.75-1.33,1.35-.32.58-.47,1.27-.47,2.06s.15,1.5.47,2.1c.32.58.76,1.03,1.33,1.35.58.32,1.24.47,1.97.47s1.4-.15,1.97-.47,1.02-.77,1.34-1.35c.33-.59.49-1.29.49-2.1s-.16-1.48-.49-2.06c-.33-.59-.78-1.04-1.34-1.35-.57-.32-1.23-.47-1.97-.47Z"/>
    <path d="M171.67,3.8c-.01,2.96-.14,5.66-.4,8.06s-.74,4.72-1.43,6.98c-.7,2.25-1.69,4.37-2.95,6.39l-3.5-1.85c1.06-1.61,1.9-3.25,2.51-4.91.62-1.66,1.08-3.36,1.36-5.12.29-1.77.47-3.75.54-5.94h-3.37v-3.63h7.24ZM178.79,3.8c0,1.67-.02,3.16-.05,4.49-.03,1.32-.11,2.59-.22,3.82h2.66V.87h4.22v29.68h-4.22v-14.81h-3.13c-.34,2.06-.84,4.01-1.5,5.85-.65,1.83-1.51,3.57-2.57,5.22l-3.42-1.92c1.12-1.74,2-3.53,2.64-5.37.64-1.84,1.08-3.72,1.35-5.64.26-1.92.41-4.08.45-6.46h-2.37v-3.63h6.18-.01ZM191.68,31.99h-4.29V.21h4.29v31.78Z"/>
    <path d="M158.16,8.06h4.29v3.67h-4.29v7.62h-4.51V.21h4.51v7.86h0ZM158.16,31.65h-20.78v-10.9h20.78v10.9ZM141.81,28.08h11.95v-3.77h-11.95v3.77ZM151.84,6.63h-18.86v-3.57h7.16V0h4.54v3.08h7.16v3.57h.01ZM142.41,7.62c1.53,0,2.9.24,4.09.72,1.2.48,2.13,1.14,2.79,2,.67.86,1.01,1.85,1.01,2.96s-.34,2.13-1.01,2.98c-.66.86-1.59,1.53-2.79,2s-2.57.7-4.09.7-2.9-.24-4.1-.7c-1.19-.47-2.12-1.12-2.79-1.99-.66-.87-.99-1.87-.99-3.01s.33-2.11.99-2.96c.67-.86,1.6-1.53,2.79-2,1.2-.48,2.57-.72,4.1-.72h0ZM142.41,10.94c-1.08,0-1.95.21-2.61.63-.64.41-.96.99-.96,1.75s.32,1.36.96,1.78c.65.42,1.52.63,2.61.63s1.92-.21,2.57-.63c.65-.42.98-1.01.99-1.78-.01-.76-.34-1.34-.98-1.75-.64-.42-1.5-.63-2.59-.63h.01Z"/>
    <path d="M120.02,23.09h-4.54V.25h4.54v22.85ZM120.86,31.43h-22.14v-10.65h4.51v7.02h17.64v3.63h-.01ZM102.59,2.24c1.62,0,3.09.35,4.42,1.05,1.33.68,2.37,1.65,3.13,2.88.77,1.23,1.16,2.61,1.16,4.14s-.39,2.9-1.16,4.12c-.77,1.23-1.82,2.19-3.15,2.9-1.32.7-2.78,1.05-4.41,1.05s-3.12-.35-4.46-1.05c-1.33-.71-2.37-1.68-3.15-2.9-.76-1.23-1.13-2.6-1.13-4.12s.38-2.91,1.13-4.14c.77-1.24,1.82-2.2,3.15-2.88,1.34-.7,2.82-1.05,4.46-1.05h.01ZM102.59,6.14c-.82-.01-1.55.15-2.22.49-.65.33-1.17.81-1.53,1.43-.36.63-.54,1.37-.54,2.24s.18,1.56.54,2.19c.37.61.89,1.09,1.53,1.43.66.33,1.4.49,2.22.51.82-.01,1.54-.18,2.19-.51.65-.34,1.16-.82,1.52-1.43.37-.61.56-1.35.56-2.19s-.18-1.6-.56-2.24c-.36-.63-.87-1.1-1.52-1.43-.64-.34-1.37-.5-2.19-.49Z"/>
    <path d="M68.33,5.87h6.21V1.82h4.44v5.62h5.76V.21h4.58v17.4h-4.58v-6.5h-5.76v5.55h-15.16V1.82h4.51v4.05ZM74.55,13.06v-3.77h-6.21v3.77s6.21,0,6.21,0ZM72.52,21.83h12.3v-2.9h4.47v12.64h-21.24v-12.64h4.47v2.9h.01ZM84.81,28.01v-2.69h-12.3v2.69s12.3,0,12.3,0Z"/>
    <path d="M56.77,8.9h4.29v3.67h-4.29v10.58h-4.51V.21h4.51v8.7h0ZM47.12,6.32h-9.85v7.99c2.99-.02,5.39-.1,7.18-.22,1.79-.13,3.55-.37,5.25-.72l.45,3.57c-1.9.42-3.88.7-5.97.84s-5.01.2-8.77.2h-2.66V2.73h14.35v3.6h.02ZM57.96,31.43h-21.79v-10.69h4.51v7.05h17.28v3.63h0Z"/>
    <path d="M12.41,7.3c.01,1.95.29,3.84.82,5.67.55,1.82,1.37,3.45,2.48,4.91,1.11,1.45,2.49,2.59,4.14,3.38l-2.73,3.6c-1.63-.83-3.03-1.98-4.19-3.45-1.16-1.48-2.07-3.21-2.76-5.2-.71,2.12-1.7,3.98-2.95,5.57-1.25,1.58-2.74,2.8-4.49,3.65l-2.73-3.63c1.73-.81,3.18-1.95,4.36-3.45,1.19-1.51,2.07-3.22,2.66-5.13.58-1.91.87-3.87.87-5.9V2.66h4.51v4.64h.01ZM25.75,12.43h4.68v3.77h-4.68v15.78h-4.51V.21h4.51v12.22h0Z"/>
  </g>
  <g>
    <path d="M308.71,44.21h-6.23c.23,1.72.96,3.27,2.2,4.66,1.25,1.38,3.05,2.4,5.41,3.05l-2.6,4.07c-1.79-.49-3.33-1.25-4.61-2.25-1.28-1.02-2.3-2.23-3.08-3.63-.79,1.54-1.83,2.86-3.17,3.98-1.33,1.1-2.94,1.94-4.85,2.48l-2.6-4.11c2.43-.68,4.27-1.77,5.55-3.25,1.28-1.49,2.02-3.16,2.23-5.01h-6.38v-4.11h18.12v4.11h.01ZM317,56.35h-5.3v-17.9h5.3v17.9ZM299.82,60.42h11.92v-2.7h5.26v13.44h-22.38v-13.44h5.19v2.7h.01ZM311.74,66.94v-2.45h-11.92v2.45h11.92Z"/>
    <path d="M269.59,40.53c1.73,0,3.3.36,4.7,1.06,1.41.71,2.52,1.7,3.33,2.95.82,1.26,1.23,2.67,1.23,4.23s-.41,2.99-1.23,4.25c-.81,1.26-1.91,2.25-3.31,2.98-1.4.71-2.98,1.06-4.72,1.06s-3.3-.36-4.72-1.06c-1.4-.72-2.51-1.71-3.33-2.98-.81-1.26-1.2-2.68-1.2-4.25s.4-2.96,1.2-4.21c.82-1.26,1.93-2.24,3.33-2.95,1.41-.72,2.99-1.08,4.72-1.08h0ZM269.63,45.07c-.8,0-1.51.15-2.15.43-.63.27-1.12.69-1.48,1.26-.36.56-.53,1.23-.52,2.02,0,.79.18,1.46.52,2.03.36.57.85,1,1.46,1.3.62.3,1.31.45,2.08.45s1.49-.15,2.11-.43c.63-.3,1.12-.73,1.48-1.3.36-.58.54-1.26.56-2.05,0-.79-.18-1.45-.54-2-.35-.57-.83-1-1.45-1.28-.61-.29-1.31-.43-2.08-.43h.02ZM286.89,71.55h-5.23v-33.19h5.23v33.19ZM259.03,60.78c4.09-.01,7.81-.08,11.19-.22,3.38-.14,6.61-.42,9.68-.87l.4,3.78c-3.03.6-6.18,1.01-9.46,1.2-3.27.2-6.67.3-10.21.3h-.97l-.62-4.21h0Z"/>
    <path d="M238.37,46.98c0,1.73.28,3.46.85,5.19s1.45,3.31,2.63,4.76c1.2,1.45,2.69,2.57,4.48,3.38l-2.88,4.15c-1.77-.8-3.29-1.92-4.58-3.38-1.28-1.48-2.28-3.2-3.05-5.15-.74,2.16-1.77,4.06-3.08,5.69-1.3,1.62-2.87,2.86-4.72,3.71l-2.95-4.18c1.81-.84,3.32-2.02,4.53-3.53,1.2-1.53,2.08-3.21,2.65-5.05.58-1.85.87-3.71.87-5.58v-1.15h-6.74v-4.33h18.42v4.33h-6.41v1.15h-.01ZM252.09,50.8h4.65v4.33h-4.65v16.35h-5.26v-33.04h5.26v12.36Z"/>
    <path d="M222.78,57.86h-30.16v-4.15h12.42v-2.41h-8.86v-11.49h23.03v4.11h-17.77v3.28h17.9v4.11h-9.01v2.41h12.43v4.15h.01ZM207.57,59.26c2.4,0,4.47.24,6.2.74,1.74.48,3.07,1.18,4,2.11.93.91,1.4,2.02,1.4,3.31s-.47,2.39-1.4,3.3c-.92.91-2.26,1.61-4,2.08-1.73.49-3.79.74-6.2.74s-4.49-.25-6.25-.74c-1.74-.48-3.07-1.17-4-2.08-.92-.91-1.38-2.01-1.38-3.3s.46-2.4,1.38-3.31c.92-.92,2.26-1.62,4-2.11,1.75-.49,3.83-.74,6.25-.74ZM207.39,63.26c-2.08,0-3.63.18-4.63.54-1,.35-1.5.9-1.5,1.66s.52,1.28,1.57,1.6,2.68.48,4.91.48c2.07,0,3.61-.17,4.6-.5,1-.35,1.5-.89,1.5-1.62s-.52-1.32-1.57-1.66c-1.04-.34-2.66-.5-4.88-.5Z"/>
    <path d="M187.2,56.53h-9.37v7.17h12.5v4.25h-30.19v-4.25h12.47v-7.17h-9.19v-15.71h5.3v11.56h18.48v4.15h0Z"/>
    <path d="M157.05,62.07h-5.3v-23.63h5.3v23.63ZM157.85,70.94h-23.23v-11.24h5.26v7.03h17.98v4.21ZM138.82,40.46c1.7,0,3.24.37,4.63,1.1,1.4.72,2.51,1.73,3.31,3.03.81,1.29,1.2,2.73,1.2,4.34s-.4,3.05-1.2,4.34c-.81,1.29-1.91,2.29-3.31,3.03-1.39.73-2.93,1.1-4.63,1.1s-3.26-.37-4.66-1.1-2.51-1.74-3.33-3.03c-.82-1.3-1.23-2.74-1.23-4.34s.41-3.06,1.23-4.34c.82-1.3,1.92-2.3,3.31-3.03,1.4-.73,2.96-1.1,4.68-1.1ZM138.82,45c-.76,0-1.46.16-2.07.47-.62.3-1.09.74-1.45,1.33-.35.59-.52,1.3-.52,2.13s.18,1.5.52,2.08c.35.58.82,1.02,1.42,1.32.6.3,1.29.45,2.05.45s1.46-.15,2.07-.43c.61-.3,1.09-.74,1.45-1.32.35-.59.52-1.29.52-2.11s-.18-1.54-.52-2.13-.83-1.04-1.45-1.33c-.6-.31-1.28-.47-2.03-.47Z"/>
    <path d="M123.85,42.47c0,1.67-.03,3.14-.1,4.41-.06,1.28-.23,2.65-.5,4.13h4.07v4.21h-12.5v4.21h9.08v12.04h-5.3v-7.89h-18.45v-4.15h9.41v-4.21h-12.43v-4.21h20.86c.25-1.28.43-2.47.52-3.58.09-1.13.15-2.3.16-3.51h-17.87v-4.15h23.06s0,2.7,0,2.7Z"/>
    <path d="M77.54,40.28c1.73,0,3.3.36,4.7,1.06,1.41.71,2.52,1.7,3.33,2.95.82,1.25,1.23,2.66,1.23,4.23,0,1.29-.28,2.47-.85,3.57-.56,1.08-1.33,2-2.35,2.76-1,.75-2.15,1.29-3.44,1.6v4.07c2.92-.18,5.48-.43,7.68-.75l.4,3.78c-3.17.63-6.43,1.04-9.81,1.23-3.35.19-6.97.29-10.84.29l-.61-4.21c2.95,0,5.58-.03,7.89-.1v-4.28c-1.29-.32-2.43-.87-3.43-1.62-1-.75-1.78-1.68-2.35-2.76-.56-1.08-.83-2.26-.83-3.55,0-1.57.4-2.99,1.2-4.23.82-1.26,1.93-2.24,3.33-2.95,1.41-.71,2.99-1.06,4.72-1.06v-.02ZM77.54,44.74c-.79,0-1.49.15-2.11.45-.63.29-1.12.71-1.48,1.28-.35.57-.52,1.25-.52,2.05s.18,1.47.52,2.03c.36.57.85,1,1.48,1.28.63.29,1.33.43,2.11.43s1.48-.15,2.08-.43c.63-.29,1.12-.71,1.48-1.28.36-.57.54-1.25.54-2.03s-.18-1.49-.54-2.05c-.36-.57-.85-1-1.48-1.28-.61-.3-1.31-.45-2.08-.45ZM94.84,71.55h-5.23v-33.19h5.23v33.19Z"/>
    <path d="M46.69,43.88c0,2.22.6,4.22,1.78,6,1.2,1.77,3.09,3.06,5.68,3.88l-2.7,4.11c-1.73-.57-3.22-1.37-4.45-2.43-1.23-1.07-2.2-2.35-2.93-3.82-.76,1.61-1.8,3-3.1,4.16-1.3,1.16-2.87,2.05-4.72,2.67l-2.81-4.11c1.85-.57,3.36-1.38,4.54-2.47,1.17-1.09,2.03-2.33,2.56-3.7.54-1.37.82-2.81.83-4.33v-3.43h5.33v3.46h.01ZM60.38,47.84h4.33v4.28h-4.33v10.38h-5.26v-24.1h5.26s0,9.44,0,9.44ZM61.5,70.94h-22.81v-10.74h5.3v6.53h17.52v4.21h-.01Z"/>
    <path d="M31.13,46.47h-4.15v2.95h4.15v4.28h-4.15v3.89h-5.26v-19.17h5.26v3.75h4.15v4.28h0ZM9.94,40.13c1.71,0,3.26.36,4.65,1.06,1.39.69,2.49,1.67,3.3,2.9.81,1.23,1.2,2.61,1.2,4.15s-.4,2.9-1.2,4.15c-.8,1.24-1.9,2.21-3.3,2.92-1.39.69-2.94,1.05-4.65,1.05s-3.27-.35-4.66-1.05c-1.39-.71-2.49-1.69-3.3-2.92-.8-1.24-1.18-2.62-1.18-4.15s.4-2.92,1.18-4.15c.81-1.24,1.91-2.2,3.3-2.9,1.39-.71,2.94-1.06,4.66-1.06ZM9.94,44.57c-.76,0-1.46.15-2.07.43-.61.29-1.09.71-1.45,1.26-.35.56-.52,1.22-.52,1.98,0,1.16.38,2.06,1.12,2.7.75.64,1.73.96,2.92.97,1.17-.01,2.14-.34,2.88-.97.75-.65,1.13-1.55,1.12-2.7,0-.76-.18-1.42-.52-1.98-.34-.56-.81-.97-1.42-1.26-.6-.29-1.29-.43-2.05-.43ZM16.04,58.22c2.3,0,4.32.26,6.01.8,1.72.52,3.04,1.29,3.96,2.28.93,1,1.4,2.18,1.4,3.55s-.47,2.57-1.4,3.57c-.92,1-2.24,1.76-3.96,2.28-1.71.54-3.71.81-6.01.81s-4.32-.27-6.03-.81c-1.71-.52-3.03-1.29-3.96-2.28-.92-1-1.38-2.19-1.38-3.57s.46-2.56,1.38-3.55c.93-1,2.26-1.76,3.98-2.28s3.72-.8,6.01-.8ZM16.04,62.33c-2.05.01-3.59.22-4.61.63-1.02.4-1.53,1.03-1.51,1.9-.01.87.49,1.51,1.51,1.93,1.02.41,2.56.62,4.61.63,2.06-.01,3.61-.22,4.63-.63s1.53-1.05,1.53-1.93-.51-1.5-1.53-1.9c-1.01-.41-2.56-.62-4.63-.63Z"/>
  </g>
</svg>